PathFileType	4	(X/Y/Z)	T1_P2_NoVision_NoMovement_3_0-734.trc
DataRate	CameraRate	NumFrames	NumMarkers	Units	OrigDataRate	OrigDataStartFrame	OrigNumFrames
60	60	4	27	m	60	91	734
Frame#	Time	RHip			RKnee			RAnkle			RBigToe			RSmallToe			RHeel			LHip			LKnee			LAnkle			LBigToe			LSmallToe			LHeel			Neck			Head			Nose			RShoulder			RElbow			RWrist			RThumb			RIndex			RPinky			LShoulder			LElbow			LWrist			LThumb			LIndex			LPinky		
		X1	Y1	Z1	X2	Y2	Z2	X3	Y3	Z3	X4	Y4	Z4	X5	Y5	Z5	X6	Y6	Z6	X7	Y7	Z7	X8	Y8	Z8	X9	Y9	Z9	X10	Y10	Z10	X11	Y11	Z11	X12	Y12	Z12	X13	Y13	Z13	X14	Y14	Z14	X15	Y15	Z15	X16	Y16	Z16	X17	Y17	Z17	X18	Y18	Z18	X19	Y19	Z19	X20	Y20	Z20	X21	Y21	Z21	X22	Y22	Z22	X23	Y23	Z23	X24	Y24	Z24	X25	Y25	Z25	X26	Y26	Z26	X27	Y27	Z27
92	1.5333333333333334	466.8257947133536	3620.1982784356196	534.2536438318008	854.2726734065191	3672.416415136906	554.0397361503024	1237.076580434207	3726.9369221744682	612.776076286697	1317.7268733022634	3619.7063064762515	558.2976830659716	1306.7195736690626	3672.1454071405315	520.4985057077084	1271.0445539864947	3710.3630238696105	620.8517634302726	464.5877871114024	3505.784387078208	733.0530785140412	863.8106752423847	3544.9544691007086	738.3541625186656	1224.7367416872762	3598.16064912025	724.1412985966863	1316.0357960997826	3504.1320941155586	680.4104414498047	1265.8379441009156	3440.2999845912645	704.0767514991571	1263.301391462098	3605.1680337855387	702.5343848562835	-122.67082890226715	3536.5224877666874	639.5663023432389	-375.25128733868223	3527.102249458627	630.3082353355366	-235.74413895082157	3474.22228033691	616.2967923574271	-34.74417367861272	3678.751812578795	536.328231938161	206.9010379642129	3646.753496836569	438.01504994696023	352.5889339747683	3457.6408362954608	504.3942716978952	417.3537894865607	3425.4246426978984	589.9450132234315	434.0715910580501	3425.67080052811	599.4402830521165	463.25528805166863	3409.3407636679967	584.7434296234248	-22.788063244719602	3551.0905289692146	833.7134929217474	222.06807828992447	3407.2539702731756	793.3626988978762	369.8231574629676	3394.880765442943	605.8496325058803	419.0152990143369	3426.730145137856	512.0940644826183	447.777572847931	3463.288931736937	530.1561683400515	470.1932347323859	3419.7017257116686	576.7421197047235
93	1.55	467.17652784199515	3619.4177664881163	534.829498004338	857.6642240549678	3676.3162168002873	557.5573808334335	1237.6903378498994	3729.9857216632718	613.493585690712	1318.024988370047	3616.3533294955932	557.4177539004837	1307.4447899270358	3673.111938822481	520.6263767671071	1271.1654500427596	3710.5174140458557	621.1501190061899	464.9559205390487	3505.8735447413915	733.1230753026488	864.191782063222	3544.7990431880057	738.3748562541145	1226.8434450998511	3599.061367721012	725.0841021696051	1314.8523048001298	3500.928616247526	679.0007530097901	1266.5029060389622	3439.6104480866384	702.8481455816425	1263.8318303002172	3607.3492021811717	703.4066580023695	-122.75094652065789	3535.7237326347968	640.6012850561676	-375.20930660786956	3526.6761490800227	630.2309263691108	-235.7533507454588	3474.0164195616885	616.1845104155321	-34.66199223450856	3678.3371669460003	537.8253976240992	208.45241169276002	3649.890471474184	440.4373933544805	353.52055567318826	3461.7244162910874	507.82061486387965	414.56230626650745	3417.4198123185697	586.5214242418842	433.5726166943232	3422.1799646226445	599.4724314493576	461.0501726559503	3407.530151842567	584.0197680589661	-22.776034413009178	3551.186430736112	833.6973681434946	221.89208577172178	3406.0703776327987	792.5522992937277	370.4821894591201	3394.514476571177	607.408484973351	418.04813837996164	3425.731674398888	512.819117987408	447.0324805406599	3463.0095978260283	532.078583005033	470.80981986090507	3423.049391773252	581.847466243328
94	1.5666666666666669	467.8135677115539	3618.502679865603	534.8179915212066	860.5446089421517	3681.6873684359784	562.0813776919888	1237.3015110635592	3731.6559536927116	613.8357769656445	1318.828016659184	3614.221262391652	556.8747963215783	1307.8026717696916	3673.5974155531844	520.6685027550291	1271.6631146625089	3709.8356617906234	621.4582245737115	464.767083748447	3505.770715584881	733.0591936262658	864.2792761415163	3544.6855981377626	738.3814754438903	1226.9190845943126	3598.96427681893	725.442325717821	1312.0108545197638	3497.740552298453	676.972135614519	1267.7318665679466	3440.029987990105	702.5903218168057	1264.2723603073766	3609.524923989506	704.32965170751	-122.24226443412759	3535.6492852475126	641.1266915142488	-375.0892782193604	3524.940014707989	629.7923601123389	-235.83158203117029	3476.570860109972	616.835769263317	-34.745151918001014	3677.953488431458	538.9642129070868	209.52842799832217	3648.6612028404697	439.912240531883	353.71326365627124	3463.0984756789026	509.02013151880107	412.2291460586728	3411.831940621545	584.5903325676754	433.55753397592093	3421.1799898979166	600.522072060198	459.55205196045046	3406.1645476666736	583.439677320367	-22.87344512947247	3551.192072834191	833.7478694436898	221.2380698239479	3404.867724720949	791.8059562407695	370.61969790772446	3393.858499104461	608.5993082476605	417.8862695108714	3425.114418439524	513.3821755336556	446.57808886752525	3462.273613626936	533.1147433264163	471.7650827000348	3426.696193607044	586.8257255815465
95	1.5833333333333333	468.2676250633493	3618.060660524672	533.9300681679321	861.2917444311023	3686.138267375792	565.3910886347361	1236.047858695204	3729.8678479705136	613.2823904161964	1320.0599756712413	3615.524138549626	557.2957730867731	1308.2324332055282	3673.816773958418	520.8209551028532	1271.7278017146432	3709.862496767747	621.9720414965656	464.4781852451687	3505.6112837213623	732.9741515145868	864.975483823026	3545.1904757757857	738.6036795024611	1226.121456241428	3598.7457478565184	724.99551379528	1309.3152843668909	3496.1883965915604	675.279219934068	1268.5026179324577	3440.7513699982246	702.9379206190121	1264.609822520591	3610.669464231388	704.3592639484923	-120.51839154444258	3536.528424343693	641.5298659140919	-374.9271686634982	3522.2657608204395	629.0993071727763	-235.77750941812647	3476.5365468850196	616.8271228826025	-34.81695215994123	3678.0364555448214	539.5034577035113	209.552451195965	3643.3029495821793	437.36686367641505	353.26090535039725	3461.5398751834327	507.7991093844962	411.21622680470244	3408.8329933807754	583.7332773926993	433.6724477353637	3421.3460821521526	601.5899767691849	458.95270483723493	3405.4293621931583	583.1017402463928	-22.921293933437973	3550.934474676446	834.1517417645623	220.10835662633494	3405.0562221031787	792.0634423837196	370.4876923825993	3393.422868245354	609.0322384944893	418.3639495088884	3424.93681849297	513.8978550710642	446.14672347663384	3460.701346644568	532.201049463265	472.3109087390417	3427.4300400650473	588.4945760685159
